<svg xmlns="http://www.w3.org/2000/svg" xmlns:xlink="http://www.w3.org/1999/xlink" width="500" zoomAndPan="magnify" viewBox="0 0 375 374.999991" height="500" preserveAspectRatio="xMidYMid meet" version="1.0"><defs><g/><clipPath id="id1"><path d="M 208 101.117188 L 310 101.117188 L 310 190 L 208 190 Z M 208 101.117188 " clip-rule="nonzero"/></clipPath><clipPath id="id2"><path d="M 100 101.117188 L 197 101.117188 L 197 184 L 100 184 Z M 100 101.117188 " clip-rule="nonzero"/></clipPath><clipPath id="id3"><path d="M 52.851562 149 L 135 149 L 135 251 L 52.851562 251 Z M 52.851562 149 " clip-rule="nonzero"/></clipPath><clipPath id="id4"><path d="M 274 155 L 351.351562 155 L 351.351562 251 L 274 251 Z M 274 155 " clip-rule="nonzero"/></clipPath><clipPath id="id5"><path d="M 181 204 L 323 204 L 323 258.617188 L 181 258.617188 Z M 181 204 " clip-rule="nonzero"/></clipPath></defs><g clip-path="url(#id1)"><path fill="#fed000" d="M 208.035156 101.117188 L 208.035156 161.164062 C 231.179688 162.6875 251.917969 173.183594 266.800781 189.171875 L 309.304688 146.554688 C 283.464844 119.78125 247.730469 102.671875 208.035156 101.117188 Z M 208.035156 101.117188 " fill-opacity="1" fill-rule="nonzero"/></g><g clip-path="url(#id2)"><path fill="#ff6809" d="M 100.171875 141.347656 L 142.675781 183.964844 C 157.015625 170.910156 175.628906 162.515625 196.191406 161.164062 L 196.191406 101.117188 C 159.109375 102.585938 125.496094 117.597656 100.171875 141.347656 Z M 100.171875 141.347656 " fill-opacity="1" fill-rule="nonzero"/></g><g clip-path="url(#id3)"><path fill="#f32423" d="M 52.851562 250.164062 L 113.652344 250.164062 C 113.652344 249.992188 113.652344 249.847656 113.652344 249.675781 C 113.652344 227.90625 121.480469 207.976562 134.445312 192.535156 L 91.824219 149.804688 C 67.707031 176.289062 52.964844 211.515625 52.851562 250.164062 Z M 52.851562 250.164062 " fill-opacity="1" fill-rule="nonzero"/></g><g clip-path="url(#id4)"><path fill="#33c635" d="M 351.351562 250.164062 C 351.234375 214.160156 338.445312 181.175781 317.222656 155.410156 L 274.34375 198.429688 C 284.582031 212.894531 290.578125 230.582031 290.578125 249.675781 C 290.578125 249.847656 290.578125 249.992188 290.578125 250.164062 Z M 351.351562 250.164062 " fill-opacity="1" fill-rule="nonzero"/></g><g clip-path="url(#id5)"><path fill="#000000" d="M 322.382812 204.785156 L 257.109375 219.824219 L 199.574219 233.082031 C 198 232.421875 196.25 232.046875 194.414062 232.046875 C 187.101562 232.046875 181.164062 238 181.164062 245.332031 C 181.164062 252.664062 187.101562 258.617188 194.414062 258.617188 C 198.628906 258.617188 202.386719 256.632812 204.796875 253.585938 L 260.492188 230.4375 Z M 322.382812 204.785156 " fill-opacity="1" fill-rule="nonzero"/></g><g fill="#000000" fill-opacity="0.4"><g transform="translate(124.359225, 329.61282)"><g><path d="M 0.015625 -17.15625 C 0.0234375 -18.164062 0.441406 -18.820312 1.265625 -19.125 C 1.710938 -19.28125 2.054688 -19.148438 2.296875 -18.734375 C 2.753906 -17.929688 3.109375 -16.9375 3.359375 -15.75 C 3.441406 -15.351562 3.535156 -14.832031 3.640625 -14.1875 L 3.90625 -12.625 L 3.90625 -12.5 L 3.921875 -12.375 C 3.941406 -12.28125 3.976562 -12.207031 4.03125 -12.15625 L 4.1875 -12.3125 L 4.328125 -12.484375 C 4.546875 -12.804688 4.816406 -13.175781 5.140625 -13.59375 L 5.984375 -14.703125 C 6.679688 -15.597656 7.203125 -16.351562 7.546875 -16.96875 C 7.617188 -17.101562 7.742188 -17.222656 7.921875 -17.328125 L 8.140625 -17.453125 L 8.375 -17.578125 C 8.5 -17.640625 8.632812 -17.59375 8.78125 -17.4375 C 8.914062 -17.289062 8.925781 -17.125 8.8125 -16.9375 L 8.265625 -16.109375 C 8.035156 -15.765625 7.859375 -15.476562 7.734375 -15.25 C 7.609375 -15.039062 7.472656 -14.773438 7.328125 -14.453125 L 6.921875 -13.609375 C 6.597656 -12.953125 6.285156 -12.429688 5.984375 -12.046875 L 5.546875 -11.5 L 5.09375 -10.953125 C 4.96875 -10.804688 4.972656 -10.695312 5.109375 -10.625 C 6.609375 -9.863281 8.351562 -8.367188 10.34375 -6.140625 L 10.859375 -5.578125 L 11.359375 -5.03125 C 11.722656 -4.582031 11.976562 -4.15625 12.125 -3.75 C 12.21875 -3.507812 12.285156 -3.207031 12.328125 -2.84375 L 12.40625 -2.375 L 12.46875 -1.90625 C 12.476562 -1.832031 12.46875 -1.769531 12.4375 -1.71875 C 12.414062 -1.664062 12.367188 -1.628906 12.296875 -1.609375 C 11.242188 -1.421875 10.359375 -1.691406 9.640625 -2.421875 C 8.742188 -3.335938 7.753906 -4.566406 6.671875 -6.109375 L 6.21875 -6.765625 L 5.765625 -7.40625 C 5.410156 -7.894531 5.070312 -8.300781 4.75 -8.625 L 4.703125 -8.671875 L 4.65625 -8.734375 C 4.613281 -8.773438 4.570312 -8.78125 4.53125 -8.75 C 4.507812 -8.738281 4.492188 -8.703125 4.484375 -8.640625 C 4.472656 -8.585938 4.472656 -8.535156 4.484375 -8.484375 C 4.691406 -6.828125 4.773438 -4.628906 4.734375 -1.890625 L 4.703125 -1.453125 L 4.640625 -1.015625 C 4.585938 -0.660156 4.382812 -0.453125 4.03125 -0.390625 C 3.613281 -0.328125 3.390625 -0.0703125 3.359375 0.375 C 3.335938 0.707031 3.175781 0.789062 2.875 0.625 C 2.582031 0.46875 2.3125 0.394531 2.0625 0.40625 C 1.914062 0.414062 1.800781 0.363281 1.71875 0.25 L 1.59375 -0.09375 C 1.34375 -0.9375 1.191406 -2.023438 1.140625 -3.359375 C 1.109375 -4.242188 0.984375 -5.484375 0.765625 -7.078125 L 0.5 -8.921875 C 0.425781 -9.617188 0.367188 -10.242188 0.328125 -10.796875 L 0.234375 -11.859375 L 0.125 -12.921875 C 0.0390625 -13.785156 0.00390625 -14.503906 0.015625 -15.078125 Z M 0.015625 -17.15625 "/></g></g></g><g fill="#000000" fill-opacity="0.4"><g transform="translate(140.12312, 329.61282)"><g><path d="M 10.046875 -14.078125 C 8.054688 -14.585938 6.222656 -14.6875 4.546875 -14.375 C 4.054688 -14.289062 3.742188 -14.472656 3.609375 -14.921875 L 3.46875 -15.40625 L 3.3125 -16.3125 L 3.140625 -17.234375 C 3.015625 -17.960938 2.84375 -18.5625 2.625 -19.03125 C 2.507812 -19.289062 2.613281 -19.429688 2.9375 -19.453125 L 3.5625 -19.453125 L 4.1875 -19.484375 C 4.664062 -19.515625 5.078125 -19.582031 5.421875 -19.6875 L 5.5625 -19.71875 L 5.703125 -19.765625 C 5.804688 -19.804688 5.851562 -19.890625 5.84375 -20.015625 C 5.820312 -20.117188 5.757812 -20.1875 5.65625 -20.21875 L 5.515625 -20.25 L 5.359375 -20.25 L 0.9375 -20.421875 C 0.738281 -20.421875 0.53125 -20.300781 0.3125 -20.0625 C 0.101562 -19.832031 0 -19.613281 0 -19.40625 L 0.03125 -17.828125 L 0.0625 -16.265625 C 0.0820312 -15.023438 0.078125 -13.972656 0.046875 -13.109375 C 0.015625 -12.304688 0.03125 -11.367188 0.09375 -10.296875 L 0.171875 -8.890625 L 0.25 -7.46875 C 0.394531 -5.125 0.378906 -3.25 0.203125 -1.84375 C 0.109375 -1.269531 0.335938 -0.785156 0.890625 -0.390625 C 1.441406 0.00390625 1.984375 0.0976562 2.515625 -0.109375 C 3.597656 -0.546875 5.203125 -0.832031 7.328125 -0.96875 L 7.796875 -0.984375 L 8.25 -1 C 8.613281 -1.03125 8.921875 -1.101562 9.171875 -1.21875 L 9.359375 -1.34375 C 9.421875 -1.394531 9.445312 -1.460938 9.4375 -1.546875 C 9.414062 -1.628906 9.367188 -1.691406 9.296875 -1.734375 C 9.222656 -1.773438 9.144531 -1.789062 9.0625 -1.78125 C 8.800781 -1.738281 8.503906 -1.726562 8.171875 -1.75 L 7.25 -1.84375 C 6.488281 -1.914062 5.882812 -1.882812 5.4375 -1.75 C 5.082031 -1.632812 4.984375 -1.757812 5.140625 -2.125 C 5.390625 -2.726562 5.488281 -3.363281 5.4375 -4.03125 L 5.375 -5.140625 L 5.328125 -6.25 L 5.234375 -7.65625 C 5.191406 -8.195312 5.09375 -8.644531 4.9375 -9 C 4.707031 -9.53125 4.539062 -10.144531 4.4375 -10.84375 L 4.328125 -11.796875 L 4.234375 -12.734375 C 4.210938 -13.035156 4.335938 -13.1875 4.609375 -13.1875 C 4.910156 -13.1875 5.359375 -13.21875 5.953125 -13.28125 L 6.625 -13.328125 L 7.28125 -13.375 L 8.65625 -13.375 C 9.1875 -13.375 9.640625 -13.421875 10.015625 -13.515625 C 10.222656 -13.578125 10.332031 -13.660156 10.34375 -13.765625 C 10.363281 -13.867188 10.335938 -13.945312 10.265625 -14 L 10.15625 -14.046875 Z M 10.046875 -14.078125 "/></g></g></g><g fill="#000000" fill-opacity="0.4"><g transform="translate(153.666621, 329.61282)"><g><path d="M 10.046875 -14.078125 C 8.054688 -14.585938 6.222656 -14.6875 4.546875 -14.375 C 4.054688 -14.289062 3.742188 -14.472656 3.609375 -14.921875 L 3.46875 -15.40625 L 3.3125 -16.3125 L 3.140625 -17.234375 C 3.015625 -17.960938 2.84375 -18.5625 2.625 -19.03125 C 2.507812 -19.289062 2.613281 -19.429688 2.9375 -19.453125 L 3.5625 -19.453125 L 4.1875 -19.484375 C 4.664062 -19.515625 5.078125 -19.582031 5.421875 -19.6875 L 5.5625 -19.71875 L 5.703125 -19.765625 C 5.804688 -19.804688 5.851562 -19.890625 5.84375 -20.015625 C 5.820312 -20.117188 5.757812 -20.1875 5.65625 -20.21875 L 5.515625 -20.25 L 5.359375 -20.25 L 0.9375 -20.421875 C 0.738281 -20.421875 0.53125 -20.300781 0.3125 -20.0625 C 0.101562 -19.832031 0 -19.613281 0 -19.40625 L 0.03125 -17.828125 L 0.0625 -16.265625 C 0.0820312 -15.023438 0.078125 -13.972656 0.046875 -13.109375 C 0.015625 -12.304688 0.03125 -11.367188 0.09375 -10.296875 L 0.171875 -8.890625 L 0.25 -7.46875 C 0.394531 -5.125 0.378906 -3.25 0.203125 -1.84375 C 0.109375 -1.269531 0.335938 -0.785156 0.890625 -0.390625 C 1.441406 0.00390625 1.984375 0.0976562 2.515625 -0.109375 C 3.597656 -0.546875 5.203125 -0.832031 7.328125 -0.96875 L 7.796875 -0.984375 L 8.25 -1 C 8.613281 -1.03125 8.921875 -1.101562 9.171875 -1.21875 L 9.359375 -1.34375 C 9.421875 -1.394531 9.445312 -1.460938 9.4375 -1.546875 C 9.414062 -1.628906 9.367188 -1.691406 9.296875 -1.734375 C 9.222656 -1.773438 9.144531 -1.789062 9.0625 -1.78125 C 8.800781 -1.738281 8.503906 -1.726562 8.171875 -1.75 L 7.25 -1.84375 C 6.488281 -1.914062 5.882812 -1.882812 5.4375 -1.75 C 5.082031 -1.632812 4.984375 -1.757812 5.140625 -2.125 C 5.390625 -2.726562 5.488281 -3.363281 5.4375 -4.03125 L 5.375 -5.140625 L 5.328125 -6.25 L 5.234375 -7.65625 C 5.191406 -8.195312 5.09375 -8.644531 4.9375 -9 C 4.707031 -9.53125 4.539062 -10.144531 4.4375 -10.84375 L 4.328125 -11.796875 L 4.234375 -12.734375 C 4.210938 -13.035156 4.335938 -13.1875 4.609375 -13.1875 C 4.910156 -13.1875 5.359375 -13.21875 5.953125 -13.28125 L 6.625 -13.328125 L 7.28125 -13.375 L 8.65625 -13.375 C 9.1875 -13.375 9.640625 -13.421875 10.015625 -13.515625 C 10.222656 -13.578125 10.332031 -13.660156 10.34375 -13.765625 C 10.363281 -13.867188 10.335938 -13.945312 10.265625 -14 L 10.15625 -14.046875 Z M 10.046875 -14.078125 "/></g></g></g><g fill="#000000" fill-opacity="0.4"><g transform="translate(167.210122, 329.61282)"><g><path d="M 8.703125 -15.25 C 8.648438 -14.8125 8.515625 -14.257812 8.296875 -13.59375 C 8.191406 -13.320312 8.039062 -13.085938 7.84375 -12.890625 C 7.519531 -12.566406 7.207031 -12.238281 6.90625 -11.90625 C 6.394531 -11.351562 5.769531 -10.878906 5.03125 -10.484375 L 4.921875 -10.421875 C 4.796875 -10.359375 4.722656 -10.398438 4.703125 -10.546875 L 4.6875 -10.734375 C 4.738281 -11.191406 4.691406 -11.738281 4.546875 -12.375 L 4.515625 -12.59375 L 4.5 -12.8125 L 4.453125 -13.359375 C 4.429688 -13.566406 4.390625 -13.742188 4.328125 -13.890625 L 4.3125 -14.078125 C 4.257812 -14.671875 4.050781 -15.488281 3.6875 -16.53125 L 3.375 -17.390625 C 3.238281 -17.703125 3.109375 -17.984375 2.984375 -18.234375 C 2.753906 -18.609375 2.785156 -18.96875 3.078125 -19.3125 C 3.523438 -19.8125 3.921875 -20.117188 4.265625 -20.234375 C 4.429688 -20.285156 4.675781 -20.328125 5 -20.359375 C 5.59375 -20.453125 6.1875 -20.265625 6.78125 -19.796875 C 7.457031 -19.285156 7.976562 -18.613281 8.34375 -17.78125 C 8.40625 -17.644531 8.460938 -17.472656 8.515625 -17.265625 L 8.65625 -16.71875 C 8.757812 -16.363281 8.773438 -15.875 8.703125 -15.25 Z M 10.203125 -15.3125 C 10.191406 -15.53125 10.15625 -15.75 10.09375 -15.96875 C 10.019531 -16.238281 9.957031 -16.507812 9.90625 -16.78125 C 9.769531 -17.519531 9.492188 -18.207031 9.078125 -18.84375 C 8.617188 -19.550781 8.0625 -20.078125 7.40625 -20.421875 C 7.25 -20.503906 7.0625 -20.578125 6.84375 -20.640625 L 6.25 -20.828125 C 5.644531 -21.003906 5.050781 -21.050781 4.46875 -20.96875 C 3.707031 -20.863281 3.054688 -20.566406 2.515625 -20.078125 L 2.234375 -19.796875 C 2.085938 -19.628906 1.929688 -19.609375 1.765625 -19.734375 C 1.523438 -19.898438 1.234375 -19.910156 0.890625 -19.765625 L 0.609375 -19.671875 C 0.453125 -19.609375 0.316406 -19.515625 0.203125 -19.390625 C 0.0664062 -19.234375 0.0234375 -19.078125 0.078125 -18.921875 L 0.125 -18.671875 L 0.171875 -18.453125 C 0.410156 -17.453125 0.515625 -16.507812 0.484375 -15.625 L 0.5 -15.359375 L 0.53125 -15.09375 L 0.546875 -14.96875 L 0.578125 -14.828125 L 0.609375 -13.171875 L 0.640625 -12.328125 L 0.90625 -8.921875 C 0.925781 -8.671875 0.929688 -8.453125 0.921875 -8.265625 C 0.890625 -7.890625 0.878906 -7.441406 0.890625 -6.921875 L 0.921875 -5.59375 L 0.953125 -3.609375 L 0.953125 -2.15625 C 0.972656 -1.601562 1.003906 -1.113281 1.046875 -0.6875 L 1.140625 0.625 L 1.171875 0.9375 C 1.242188 1.226562 1.421875 1.359375 1.703125 1.328125 C 1.859375 1.304688 2.054688 1.253906 2.296875 1.171875 L 2.84375 0.921875 C 3.0625 0.828125 3.242188 0.757812 3.390625 0.71875 C 3.492188 0.695312 3.59375 0.648438 3.6875 0.578125 L 3.921875 0.34375 L 4.140625 0.0625 C 4.648438 -0.507812 4.914062 -1.15625 4.9375 -1.875 C 4.945312 -2.4375 5.007812 -2.960938 5.125 -3.453125 C 5.207031 -3.816406 5.21875 -4.25 5.15625 -4.75 C 5.113281 -5.050781 5.113281 -5.316406 5.15625 -5.546875 C 5.207031 -5.941406 5.210938 -6.320312 5.171875 -6.6875 L 5.140625 -6.9375 L 5.140625 -7.203125 C 5.171875 -7.609375 5.148438 -8.164062 5.078125 -8.875 L 5.046875 -9.21875 C 5.035156 -9.394531 5.128906 -9.5 5.328125 -9.53125 L 5.546875 -9.5625 C 5.835938 -9.582031 6.140625 -9.675781 6.453125 -9.84375 C 6.734375 -10 6.957031 -10.109375 7.125 -10.171875 C 7.59375 -10.347656 8.046875 -10.65625 8.484375 -11.09375 L 9.453125 -12.109375 C 9.804688 -12.484375 10.007812 -12.832031 10.0625 -13.15625 L 10.09375 -13.265625 L 10.140625 -13.375 C 10.210938 -13.5 10.242188 -13.648438 10.234375 -13.828125 Z M 10.203125 -15.3125 "/></g></g></g><g fill="#000000" fill-opacity="0.4"><g transform="translate(179.885256, 329.61282)"><g/></g></g><g fill="#000000" fill-opacity="0.4"><g transform="translate(187.44908, 329.61282)"><g><path d="M 7.640625 -8.765625 C 7.691406 -6.171875 7.570312 -3.820312 7.28125 -1.71875 L 7.25 -1.484375 L 7.21875 -1.28125 C 7.164062 -1.113281 7.078125 -0.972656 6.953125 -0.859375 C 6.847656 -0.765625 6.835938 -0.703125 6.921875 -0.671875 L 7.03125 -0.65625 L 7.140625 -0.65625 L 7.90625 -0.609375 L 8.65625 -0.578125 L 8.765625 -0.5625 L 8.890625 -0.53125 C 8.960938 -0.5 9 -0.4375 9 -0.34375 C 9 -0.132812 8.882812 -0.0195312 8.65625 0 L 8.140625 0.0625 L 7.640625 0.09375 C 7.234375 0.113281 6.894531 0.160156 6.625 0.234375 C 6.132812 0.335938 5.421875 0.335938 4.484375 0.234375 L 3.421875 0.109375 C 3.023438 0.0859375 2.664062 0.113281 2.34375 0.1875 C 2.257812 0.195312 2.195312 0.175781 2.15625 0.125 L 2.09375 0.046875 L 2.0625 -0.0625 C 2 -0.269531 2.078125 -0.40625 2.296875 -0.46875 C 2.742188 -0.5625 3.101562 -0.613281 3.375 -0.625 C 3.738281 -0.644531 3.921875 -0.835938 3.921875 -1.203125 C 3.929688 -5.160156 3.546875 -10.972656 2.765625 -18.640625 C 2.734375 -19.046875 2.53125 -19.234375 2.15625 -19.203125 L 1.6875 -19.203125 L 1.25 -19.234375 C 0.875 -19.253906 0.566406 -19.234375 0.328125 -19.171875 C 0.210938 -19.140625 0.125 -19.171875 0.0625 -19.265625 C 0.0195312 -19.304688 0.0078125 -19.359375 0.03125 -19.421875 L 0.125 -19.546875 C 0.269531 -19.765625 0.492188 -19.867188 0.796875 -19.859375 C 1.535156 -19.835938 2.554688 -19.90625 3.859375 -20.0625 L 5.390625 -20.265625 C 5.960938 -20.316406 6.472656 -20.34375 6.921875 -20.34375 L 7.28125 -20.34375 C 7.4375 -20.34375 7.5625 -20.332031 7.65625 -20.3125 C 7.925781 -20.257812 8.082031 -20.128906 8.125 -19.921875 C 8.144531 -19.753906 8.03125 -19.625 7.78125 -19.53125 L 7.453125 -19.4375 L 7.125 -19.359375 C 7.0625 -19.328125 6.957031 -19.3125 6.8125 -19.3125 L 6.515625 -19.265625 L 6.390625 -19.234375 L 6.296875 -19.15625 C 6.234375 -19.09375 6.242188 -19.019531 6.328125 -18.9375 C 6.546875 -18.738281 6.679688 -18.46875 6.734375 -18.125 L 6.78125 -17.671875 L 6.8125 -17.234375 L 7.09375 -15.125 L 7.34375 -13 C 7.53125 -11.394531 7.628906 -9.984375 7.640625 -8.765625 Z M 7.640625 -8.765625 "/></g></g></g><g fill="#000000" fill-opacity="0.4"><g transform="translate(199.60758, 329.61282)"><g><path d="M 9.90625 -20.9375 L 9.34375 -21.015625 L 6.9375 -21.125 L 6.046875 -21.15625 L 5.140625 -21.15625 C 4.003906 -21.070312 2.832031 -20.863281 1.625 -20.53125 C 1.21875 -20.414062 0.769531 -20.328125 0.28125 -20.265625 L 0.015625 -20.234375 L -0.234375 -20.1875 C -0.828125 -20.019531 -1.546875 -19.863281 -2.390625 -19.71875 L -2.6875 -19.65625 L -3 -19.609375 C -3.195312 -19.578125 -3.273438 -19.519531 -3.234375 -19.4375 C -3.210938 -19.394531 -3.175781 -19.363281 -3.125 -19.34375 L -2.984375 -19.328125 C -2.367188 -19.273438 -1.898438 -19.269531 -1.578125 -19.3125 C -1.234375 -19.351562 -0.875 -19.382812 -0.5 -19.40625 L 0.078125 -19.421875 L 0.65625 -19.421875 C 1.113281 -19.429688 1.5 -19.460938 1.8125 -19.515625 L 1.953125 -19.53125 C 2.046875 -19.519531 2.097656 -19.46875 2.109375 -19.375 L 2.140625 -19.203125 C 2.128906 -18.367188 2.160156 -17.582031 2.234375 -16.84375 L 2.25 -16.34375 L 2.25 -15.859375 L 2.265625 -14.890625 L 2.296875 -13.921875 L 2.34375 -12.90625 L 2.359375 -11.890625 L 2.359375 -9.4375 L 2.296875 -6.46875 L 2.25 -5.765625 L 2.21875 -5.0625 L 2.234375 -3.25 L 2.25 -1.421875 C 2.25 -0.503906 2.300781 0.210938 2.40625 0.734375 L 2.53125 1.609375 L 2.59375 1.875 L 2.671875 2.109375 C 2.734375 2.316406 2.875 2.425781 3.09375 2.4375 C 3.207031 2.445312 3.34375 2.472656 3.5 2.515625 C 3.6875 2.566406 3.882812 2.5625 4.09375 2.5 L 4.546875 2.328125 C 4.722656 2.253906 4.890625 2.207031 5.046875 2.1875 C 5.378906 2.132812 5.601562 1.957031 5.71875 1.65625 C 5.820312 1.351562 6.003906 1.023438 6.265625 0.671875 C 6.453125 0.398438 6.582031 0.046875 6.65625 -0.390625 L 6.765625 -1.3125 L 6.921875 -2.53125 C 6.941406 -2.738281 6.953125 -2.984375 6.953125 -3.265625 L 6.921875 -3.984375 C 6.910156 -4.566406 6.878906 -5.085938 6.828125 -5.546875 L 6.765625 -6.171875 L 6.71875 -6.8125 C 6.707031 -7.769531 6.617188 -8.757812 6.453125 -9.78125 C 6.421875 -10.019531 6.394531 -10.328125 6.375 -10.703125 L 6.328125 -11.65625 L 6.3125 -12.265625 L 6.28125 -12.875 L 6.21875 -14.078125 L 6.171875 -15.265625 C 6.171875 -15.441406 6.148438 -15.582031 6.109375 -15.6875 C 5.929688 -16.050781 5.878906 -16.429688 5.953125 -16.828125 L 5.953125 -17.265625 C 5.929688 -17.484375 5.929688 -17.671875 5.953125 -17.828125 C 6.003906 -18.003906 6 -18.25 5.9375 -18.5625 L 5.875 -19.015625 L 5.828125 -19.453125 C 5.816406 -19.578125 5.878906 -19.648438 6.015625 -19.671875 L 6.15625 -19.671875 C 6.800781 -19.722656 7.40625 -19.820312 7.96875 -19.96875 C 8.582031 -20.125 9.0625 -20.1875 9.40625 -20.15625 L 9.859375 -20.1875 L 10.296875 -20.25 C 10.492188 -20.28125 10.59375 -20.382812 10.59375 -20.5625 C 10.59375 -20.6875 10.515625 -20.773438 10.359375 -20.828125 Z M 9.90625 -20.9375 "/></g></g></g><g fill="#000000" fill-opacity="0.4"><g transform="translate(212.381634, 329.61282)"><g/></g></g><g fill="#000000" fill-opacity="1"><g transform="translate(123.363732, 328.617312)"><g><path d="M 0.015625 -17.15625 C 0.0234375 -18.164062 0.441406 -18.820312 1.265625 -19.125 C 1.710938 -19.28125 2.054688 -19.148438 2.296875 -18.734375 C 2.753906 -17.929688 3.109375 -16.9375 3.359375 -15.75 C 3.441406 -15.351562 3.535156 -14.832031 3.640625 -14.1875 L 3.90625 -12.625 L 3.90625 -12.5 L 3.921875 -12.375 C 3.941406 -12.28125 3.976562 -12.207031 4.03125 -12.15625 L 4.1875 -12.3125 L 4.328125 -12.484375 C 4.546875 -12.804688 4.816406 -13.175781 5.140625 -13.59375 L 5.984375 -14.703125 C 6.679688 -15.597656 7.203125 -16.351562 7.546875 -16.96875 C 7.617188 -17.101562 7.742188 -17.222656 7.921875 -17.328125 L 8.140625 -17.453125 L 8.375 -17.578125 C 8.5 -17.640625 8.632812 -17.59375 8.78125 -17.4375 C 8.914062 -17.289062 8.925781 -17.125 8.8125 -16.9375 L 8.265625 -16.109375 C 8.035156 -15.765625 7.859375 -15.476562 7.734375 -15.25 C 7.609375 -15.039062 7.472656 -14.773438 7.328125 -14.453125 L 6.921875 -13.609375 C 6.597656 -12.953125 6.285156 -12.429688 5.984375 -12.046875 L 5.546875 -11.5 L 5.09375 -10.953125 C 4.96875 -10.804688 4.972656 -10.695312 5.109375 -10.625 C 6.609375 -9.863281 8.351562 -8.367188 10.34375 -6.140625 L 10.859375 -5.578125 L 11.359375 -5.03125 C 11.722656 -4.582031 11.976562 -4.15625 12.125 -3.75 C 12.21875 -3.507812 12.285156 -3.207031 12.328125 -2.84375 L 12.40625 -2.375 L 12.46875 -1.90625 C 12.476562 -1.832031 12.46875 -1.769531 12.4375 -1.71875 C 12.414062 -1.664062 12.367188 -1.628906 12.296875 -1.609375 C 11.242188 -1.421875 10.359375 -1.691406 9.640625 -2.421875 C 8.742188 -3.335938 7.753906 -4.566406 6.671875 -6.109375 L 6.21875 -6.765625 L 5.765625 -7.40625 C 5.410156 -7.894531 5.070312 -8.300781 4.75 -8.625 L 4.703125 -8.671875 L 4.65625 -8.734375 C 4.613281 -8.773438 4.570312 -8.78125 4.53125 -8.75 C 4.507812 -8.738281 4.492188 -8.703125 4.484375 -8.640625 C 4.472656 -8.585938 4.472656 -8.535156 4.484375 -8.484375 C 4.691406 -6.828125 4.773438 -4.628906 4.734375 -1.890625 L 4.703125 -1.453125 L 4.640625 -1.015625 C 4.585938 -0.660156 4.382812 -0.453125 4.03125 -0.390625 C 3.613281 -0.328125 3.390625 -0.0703125 3.359375 0.375 C 3.335938 0.707031 3.175781 0.789062 2.875 0.625 C 2.582031 0.46875 2.3125 0.394531 2.0625 0.40625 C 1.914062 0.414062 1.800781 0.363281 1.71875 0.25 L 1.59375 -0.09375 C 1.34375 -0.9375 1.191406 -2.023438 1.140625 -3.359375 C 1.109375 -4.242188 0.984375 -5.484375 0.765625 -7.078125 L 0.5 -8.921875 C 0.425781 -9.617188 0.367188 -10.242188 0.328125 -10.796875 L 0.234375 -11.859375 L 0.125 -12.921875 C 0.0390625 -13.785156 0.00390625 -14.503906 0.015625 -15.078125 Z M 0.015625 -17.15625 "/></g></g></g><g fill="#000000" fill-opacity="1"><g transform="translate(139.127627, 328.617312)"><g><path d="M 10.046875 -14.078125 C 8.054688 -14.585938 6.222656 -14.6875 4.546875 -14.375 C 4.054688 -14.289062 3.742188 -14.472656 3.609375 -14.921875 L 3.46875 -15.40625 L 3.3125 -16.3125 L 3.140625 -17.234375 C 3.015625 -17.960938 2.84375 -18.5625 2.625 -19.03125 C 2.507812 -19.289062 2.613281 -19.429688 2.9375 -19.453125 L 3.5625 -19.453125 L 4.1875 -19.484375 C 4.664062 -19.515625 5.078125 -19.582031 5.421875 -19.6875 L 5.5625 -19.71875 L 5.703125 -19.765625 C 5.804688 -19.804688 5.851562 -19.890625 5.84375 -20.015625 C 5.820312 -20.117188 5.757812 -20.1875 5.65625 -20.21875 L 5.515625 -20.25 L 5.359375 -20.25 L 0.9375 -20.421875 C 0.738281 -20.421875 0.53125 -20.300781 0.3125 -20.0625 C 0.101562 -19.832031 0 -19.613281 0 -19.40625 L 0.03125 -17.828125 L 0.0625 -16.265625 C 0.0820312 -15.023438 0.078125 -13.972656 0.046875 -13.109375 C 0.015625 -12.304688 0.03125 -11.367188 0.09375 -10.296875 L 0.171875 -8.890625 L 0.25 -7.46875 C 0.394531 -5.125 0.378906 -3.25 0.203125 -1.84375 C 0.109375 -1.269531 0.335938 -0.785156 0.890625 -0.390625 C 1.441406 0.00390625 1.984375 0.0976562 2.515625 -0.109375 C 3.597656 -0.546875 5.203125 -0.832031 7.328125 -0.96875 L 7.796875 -0.984375 L 8.25 -1 C 8.613281 -1.03125 8.921875 -1.101562 9.171875 -1.21875 L 9.359375 -1.34375 C 9.421875 -1.394531 9.445312 -1.460938 9.4375 -1.546875 C 9.414062 -1.628906 9.367188 -1.691406 9.296875 -1.734375 C 9.222656 -1.773438 9.144531 -1.789062 9.0625 -1.78125 C 8.800781 -1.738281 8.503906 -1.726562 8.171875 -1.75 L 7.25 -1.84375 C 6.488281 -1.914062 5.882812 -1.882812 5.4375 -1.75 C 5.082031 -1.632812 4.984375 -1.757812 5.140625 -2.125 C 5.390625 -2.726562 5.488281 -3.363281 5.4375 -4.03125 L 5.375 -5.140625 L 5.328125 -6.25 L 5.234375 -7.65625 C 5.191406 -8.195312 5.09375 -8.644531 4.9375 -9 C 4.707031 -9.53125 4.539062 -10.144531 4.4375 -10.84375 L 4.328125 -11.796875 L 4.234375 -12.734375 C 4.210938 -13.035156 4.335938 -13.1875 4.609375 -13.1875 C 4.910156 -13.1875 5.359375 -13.21875 5.953125 -13.28125 L 6.625 -13.328125 L 7.28125 -13.375 L 8.65625 -13.375 C 9.1875 -13.375 9.640625 -13.421875 10.015625 -13.515625 C 10.222656 -13.578125 10.332031 -13.660156 10.34375 -13.765625 C 10.363281 -13.867188 10.335938 -13.945312 10.265625 -14 L 10.15625 -14.046875 Z M 10.046875 -14.078125 "/></g></g></g><g fill="#000000" fill-opacity="1"><g transform="translate(152.671127, 328.617312)"><g><path d="M 10.046875 -14.078125 C 8.054688 -14.585938 6.222656 -14.6875 4.546875 -14.375 C 4.054688 -14.289062 3.742188 -14.472656 3.609375 -14.921875 L 3.46875 -15.40625 L 3.3125 -16.3125 L 3.140625 -17.234375 C 3.015625 -17.960938 2.84375 -18.5625 2.625 -19.03125 C 2.507812 -19.289062 2.613281 -19.429688 2.9375 -19.453125 L 3.5625 -19.453125 L 4.1875 -19.484375 C 4.664062 -19.515625 5.078125 -19.582031 5.421875 -19.6875 L 5.5625 -19.71875 L 5.703125 -19.765625 C 5.804688 -19.804688 5.851562 -19.890625 5.84375 -20.015625 C 5.820312 -20.117188 5.757812 -20.1875 5.65625 -20.21875 L 5.515625 -20.25 L 5.359375 -20.25 L 0.9375 -20.421875 C 0.738281 -20.421875 0.53125 -20.300781 0.3125 -20.0625 C 0.101562 -19.832031 0 -19.613281 0 -19.40625 L 0.03125 -17.828125 L 0.0625 -16.265625 C 0.0820312 -15.023438 0.078125 -13.972656 0.046875 -13.109375 C 0.015625 -12.304688 0.03125 -11.367188 0.09375 -10.296875 L 0.171875 -8.890625 L 0.25 -7.46875 C 0.394531 -5.125 0.378906 -3.25 0.203125 -1.84375 C 0.109375 -1.269531 0.335938 -0.785156 0.890625 -0.390625 C 1.441406 0.00390625 1.984375 0.0976562 2.515625 -0.109375 C 3.597656 -0.546875 5.203125 -0.832031 7.328125 -0.96875 L 7.796875 -0.984375 L 8.25 -1 C 8.613281 -1.03125 8.921875 -1.101562 9.171875 -1.21875 L 9.359375 -1.34375 C 9.421875 -1.394531 9.445312 -1.460938 9.4375 -1.546875 C 9.414062 -1.628906 9.367188 -1.691406 9.296875 -1.734375 C 9.222656 -1.773438 9.144531 -1.789062 9.0625 -1.78125 C 8.800781 -1.738281 8.503906 -1.726562 8.171875 -1.75 L 7.25 -1.84375 C 6.488281 -1.914062 5.882812 -1.882812 5.4375 -1.75 C 5.082031 -1.632812 4.984375 -1.757812 5.140625 -2.125 C 5.390625 -2.726562 5.488281 -3.363281 5.4375 -4.03125 L 5.375 -5.140625 L 5.328125 -6.25 L 5.234375 -7.65625 C 5.191406 -8.195312 5.09375 -8.644531 4.9375 -9 C 4.707031 -9.53125 4.539062 -10.144531 4.4375 -10.84375 L 4.328125 -11.796875 L 4.234375 -12.734375 C 4.210938 -13.035156 4.335938 -13.1875 4.609375 -13.1875 C 4.910156 -13.1875 5.359375 -13.21875 5.953125 -13.28125 L 6.625 -13.328125 L 7.28125 -13.375 L 8.65625 -13.375 C 9.1875 -13.375 9.640625 -13.421875 10.015625 -13.515625 C 10.222656 -13.578125 10.332031 -13.660156 10.34375 -13.765625 C 10.363281 -13.867188 10.335938 -13.945312 10.265625 -14 L 10.15625 -14.046875 Z M 10.046875 -14.078125 "/></g></g></g><g fill="#000000" fill-opacity="1"><g transform="translate(166.214628, 328.617312)"><g><path d="M 8.703125 -15.25 C 8.648438 -14.8125 8.515625 -14.257812 8.296875 -13.59375 C 8.191406 -13.320312 8.039062 -13.085938 7.84375 -12.890625 C 7.519531 -12.566406 7.207031 -12.238281 6.90625 -11.90625 C 6.394531 -11.351562 5.769531 -10.878906 5.03125 -10.484375 L 4.921875 -10.421875 C 4.796875 -10.359375 4.722656 -10.398438 4.703125 -10.546875 L 4.6875 -10.734375 C 4.738281 -11.191406 4.691406 -11.738281 4.546875 -12.375 L 4.515625 -12.59375 L 4.5 -12.8125 L 4.453125 -13.359375 C 4.429688 -13.566406 4.390625 -13.742188 4.328125 -13.890625 L 4.3125 -14.078125 C 4.257812 -14.671875 4.050781 -15.488281 3.6875 -16.53125 L 3.375 -17.390625 C 3.238281 -17.703125 3.109375 -17.984375 2.984375 -18.234375 C 2.753906 -18.609375 2.785156 -18.96875 3.078125 -19.3125 C 3.523438 -19.8125 3.921875 -20.117188 4.265625 -20.234375 C 4.429688 -20.285156 4.675781 -20.328125 5 -20.359375 C 5.59375 -20.453125 6.1875 -20.265625 6.78125 -19.796875 C 7.457031 -19.285156 7.976562 -18.613281 8.34375 -17.78125 C 8.40625 -17.644531 8.460938 -17.472656 8.515625 -17.265625 L 8.65625 -16.71875 C 8.757812 -16.363281 8.773438 -15.875 8.703125 -15.25 Z M 10.203125 -15.3125 C 10.191406 -15.53125 10.15625 -15.75 10.09375 -15.96875 C 10.019531 -16.238281 9.957031 -16.507812 9.90625 -16.78125 C 9.769531 -17.519531 9.492188 -18.207031 9.078125 -18.84375 C 8.617188 -19.550781 8.0625 -20.078125 7.40625 -20.421875 C 7.25 -20.503906 7.0625 -20.578125 6.84375 -20.640625 L 6.25 -20.828125 C 5.644531 -21.003906 5.050781 -21.050781 4.46875 -20.96875 C 3.707031 -20.863281 3.054688 -20.566406 2.515625 -20.078125 L 2.234375 -19.796875 C 2.085938 -19.628906 1.929688 -19.609375 1.765625 -19.734375 C 1.523438 -19.898438 1.234375 -19.910156 0.890625 -19.765625 L 0.609375 -19.671875 C 0.453125 -19.609375 0.316406 -19.515625 0.203125 -19.390625 C 0.0664062 -19.234375 0.0234375 -19.078125 0.078125 -18.921875 L 0.125 -18.671875 L 0.171875 -18.453125 C 0.410156 -17.453125 0.515625 -16.507812 0.484375 -15.625 L 0.5 -15.359375 L 0.53125 -15.09375 L 0.546875 -14.96875 L 0.578125 -14.828125 L 0.609375 -13.171875 L 0.640625 -12.328125 L 0.90625 -8.921875 C 0.925781 -8.671875 0.929688 -8.453125 0.921875 -8.265625 C 0.890625 -7.890625 0.878906 -7.441406 0.890625 -6.921875 L 0.921875 -5.59375 L 0.953125 -3.609375 L 0.953125 -2.15625 C 0.972656 -1.601562 1.003906 -1.113281 1.046875 -0.6875 L 1.140625 0.625 L 1.171875 0.9375 C 1.242188 1.226562 1.421875 1.359375 1.703125 1.328125 C 1.859375 1.304688 2.054688 1.253906 2.296875 1.171875 L 2.84375 0.921875 C 3.0625 0.828125 3.242188 0.757812 3.390625 0.71875 C 3.492188 0.695312 3.59375 0.648438 3.6875 0.578125 L 3.921875 0.34375 L 4.140625 0.0625 C 4.648438 -0.507812 4.914062 -1.15625 4.9375 -1.875 C 4.945312 -2.4375 5.007812 -2.960938 5.125 -3.453125 C 5.207031 -3.816406 5.21875 -4.25 5.15625 -4.75 C 5.113281 -5.050781 5.113281 -5.316406 5.15625 -5.546875 C 5.207031 -5.941406 5.210938 -6.320312 5.171875 -6.6875 L 5.140625 -6.9375 L 5.140625 -7.203125 C 5.171875 -7.609375 5.148438 -8.164062 5.078125 -8.875 L 5.046875 -9.21875 C 5.035156 -9.394531 5.128906 -9.5 5.328125 -9.53125 L 5.546875 -9.5625 C 5.835938 -9.582031 6.140625 -9.675781 6.453125 -9.84375 C 6.734375 -10 6.957031 -10.109375 7.125 -10.171875 C 7.59375 -10.347656 8.046875 -10.65625 8.484375 -11.09375 L 9.453125 -12.109375 C 9.804688 -12.484375 10.007812 -12.832031 10.0625 -13.15625 L 10.09375 -13.265625 L 10.140625 -13.375 C 10.210938 -13.5 10.242188 -13.648438 10.234375 -13.828125 Z M 10.203125 -15.3125 "/></g></g></g><g fill="#000000" fill-opacity="1"><g transform="translate(178.889763, 328.617312)"><g/></g></g><g fill="#000000" fill-opacity="1"><g transform="translate(186.453586, 328.617312)"><g><path d="M 7.640625 -8.765625 C 7.691406 -6.171875 7.570312 -3.820312 7.28125 -1.71875 L 7.25 -1.484375 L 7.21875 -1.28125 C 7.164062 -1.113281 7.078125 -0.972656 6.953125 -0.859375 C 6.847656 -0.765625 6.835938 -0.703125 6.921875 -0.671875 L 7.03125 -0.65625 L 7.140625 -0.65625 L 7.90625 -0.609375 L 8.65625 -0.578125 L 8.765625 -0.5625 L 8.890625 -0.53125 C 8.960938 -0.5 9 -0.4375 9 -0.34375 C 9 -0.132812 8.882812 -0.0195312 8.65625 0 L 8.140625 0.0625 L 7.640625 0.09375 C 7.234375 0.113281 6.894531 0.160156 6.625 0.234375 C 6.132812 0.335938 5.421875 0.335938 4.484375 0.234375 L 3.421875 0.109375 C 3.023438 0.0859375 2.664062 0.113281 2.34375 0.1875 C 2.257812 0.195312 2.195312 0.175781 2.15625 0.125 L 2.09375 0.046875 L 2.0625 -0.0625 C 2 -0.269531 2.078125 -0.40625 2.296875 -0.46875 C 2.742188 -0.5625 3.101562 -0.613281 3.375 -0.625 C 3.738281 -0.644531 3.921875 -0.835938 3.921875 -1.203125 C 3.929688 -5.160156 3.546875 -10.972656 2.765625 -18.640625 C 2.734375 -19.046875 2.53125 -19.234375 2.15625 -19.203125 L 1.6875 -19.203125 L 1.25 -19.234375 C 0.875 -19.253906 0.566406 -19.234375 0.328125 -19.171875 C 0.210938 -19.140625 0.125 -19.171875 0.0625 -19.265625 C 0.0195312 -19.304688 0.0078125 -19.359375 0.03125 -19.421875 L 0.125 -19.546875 C 0.269531 -19.765625 0.492188 -19.867188 0.796875 -19.859375 C 1.535156 -19.835938 2.554688 -19.90625 3.859375 -20.0625 L 5.390625 -20.265625 C 5.960938 -20.316406 6.472656 -20.34375 6.921875 -20.34375 L 7.28125 -20.34375 C 7.4375 -20.34375 7.5625 -20.332031 7.65625 -20.3125 C 7.925781 -20.257812 8.082031 -20.128906 8.125 -19.921875 C 8.144531 -19.753906 8.03125 -19.625 7.78125 -19.53125 L 7.453125 -19.4375 L 7.125 -19.359375 C 7.0625 -19.328125 6.957031 -19.3125 6.8125 -19.3125 L 6.515625 -19.265625 L 6.390625 -19.234375 L 6.296875 -19.15625 C 6.234375 -19.09375 6.242188 -19.019531 6.328125 -18.9375 C 6.546875 -18.738281 6.679688 -18.46875 6.734375 -18.125 L 6.78125 -17.671875 L 6.8125 -17.234375 L 7.09375 -15.125 L 7.34375 -13 C 7.53125 -11.394531 7.628906 -9.984375 7.640625 -8.765625 Z M 7.640625 -8.765625 "/></g></g></g><g fill="#000000" fill-opacity="1"><g transform="translate(198.612086, 328.617312)"><g><path d="M 9.90625 -20.9375 L 9.34375 -21.015625 L 6.9375 -21.125 L 6.046875 -21.15625 L 5.140625 -21.15625 C 4.003906 -21.070312 2.832031 -20.863281 1.625 -20.53125 C 1.21875 -20.414062 0.769531 -20.328125 0.28125 -20.265625 L 0.015625 -20.234375 L -0.234375 -20.1875 C -0.828125 -20.019531 -1.546875 -19.863281 -2.390625 -19.71875 L -2.6875 -19.65625 L -3 -19.609375 C -3.195312 -19.578125 -3.273438 -19.519531 -3.234375 -19.4375 C -3.210938 -19.394531 -3.175781 -19.363281 -3.125 -19.34375 L -2.984375 -19.328125 C -2.367188 -19.273438 -1.898438 -19.269531 -1.578125 -19.3125 C -1.234375 -19.351562 -0.875 -19.382812 -0.5 -19.40625 L 0.078125 -19.421875 L 0.65625 -19.421875 C 1.113281 -19.429688 1.5 -19.460938 1.8125 -19.515625 L 1.953125 -19.53125 C 2.046875 -19.519531 2.097656 -19.46875 2.109375 -19.375 L 2.140625 -19.203125 C 2.128906 -18.367188 2.160156 -17.582031 2.234375 -16.84375 L 2.25 -16.34375 L 2.25 -15.859375 L 2.265625 -14.890625 L 2.296875 -13.921875 L 2.34375 -12.90625 L 2.359375 -11.890625 L 2.359375 -9.4375 L 2.296875 -6.46875 L 2.25 -5.765625 L 2.21875 -5.0625 L 2.234375 -3.25 L 2.25 -1.421875 C 2.25 -0.503906 2.300781 0.210938 2.40625 0.734375 L 2.53125 1.609375 L 2.59375 1.875 L 2.671875 2.109375 C 2.734375 2.316406 2.875 2.425781 3.09375 2.4375 C 3.207031 2.445312 3.34375 2.472656 3.5 2.515625 C 3.6875 2.566406 3.882812 2.5625 4.09375 2.5 L 4.546875 2.328125 C 4.722656 2.253906 4.890625 2.207031 5.046875 2.1875 C 5.378906 2.132812 5.601562 1.957031 5.71875 1.65625 C 5.820312 1.351562 6.003906 1.023438 6.265625 0.671875 C 6.453125 0.398438 6.582031 0.046875 6.65625 -0.390625 L 6.765625 -1.3125 L 6.921875 -2.53125 C 6.941406 -2.738281 6.953125 -2.984375 6.953125 -3.265625 L 6.921875 -3.984375 C 6.910156 -4.566406 6.878906 -5.085938 6.828125 -5.546875 L 6.765625 -6.171875 L 6.71875 -6.8125 C 6.707031 -7.769531 6.617188 -8.757812 6.453125 -9.78125 C 6.421875 -10.019531 6.394531 -10.328125 6.375 -10.703125 L 6.328125 -11.65625 L 6.3125 -12.265625 L 6.28125 -12.875 L 6.21875 -14.078125 L 6.171875 -15.265625 C 6.171875 -15.441406 6.148438 -15.582031 6.109375 -15.6875 C 5.929688 -16.050781 5.878906 -16.429688 5.953125 -16.828125 L 5.953125 -17.265625 C 5.929688 -17.484375 5.929688 -17.671875 5.953125 -17.828125 C 6.003906 -18.003906 6 -18.25 5.9375 -18.5625 L 5.875 -19.015625 L 5.828125 -19.453125 C 5.816406 -19.578125 5.878906 -19.648438 6.015625 -19.671875 L 6.15625 -19.671875 C 6.800781 -19.722656 7.40625 -19.820312 7.96875 -19.96875 C 8.582031 -20.125 9.0625 -20.1875 9.40625 -20.15625 L 9.859375 -20.1875 L 10.296875 -20.25 C 10.492188 -20.28125 10.59375 -20.382812 10.59375 -20.5625 C 10.59375 -20.6875 10.515625 -20.773438 10.359375 -20.828125 Z M 9.90625 -20.9375 "/></g></g></g><g fill="#000000" fill-opacity="1"><g transform="translate(211.386141, 328.617312)"><g/></g></g><g fill="#000000" fill-opacity="0.4"><g transform="translate(219.937344, 329.61282)"><g><path d="M 5.828125 0.0625 C 5.742188 0.0820312 5.640625 0.09375 5.515625 0.09375 L 5.203125 0.0625 C 4.929688 0.0390625 4.722656 0.109375 4.578125 0.265625 L 4.515625 0.28125 L 4.453125 0.28125 C 3.972656 0.0507812 3.394531 -0.0625 2.71875 -0.0625 L 1.84375 -0.015625 L 0.953125 0.046875 L 0.796875 0 L 0.65625 -0.0625 L 0.453125 -0.0625 L 0.234375 -0.09375 C 0.078125 -0.125 0.00390625 -0.1875 0.015625 -0.28125 C 0.0234375 -0.40625 0.113281 -0.488281 0.28125 -0.53125 L 0.53125 -0.5625 L 0.75 -0.59375 L 1.4375 -0.703125 L 2.140625 -0.78125 C 2.328125 -0.800781 2.410156 -0.882812 2.390625 -1.03125 C 2.304688 -1.644531 2.273438 -2.410156 2.296875 -3.328125 L 2.34375 -4.484375 L 2.359375 -5.625 L 2.3125 -9.890625 L 2.234375 -14.15625 C 2.222656 -14.40625 2.191406 -14.71875 2.140625 -15.09375 L 2.015625 -16.046875 C 1.992188 -16.222656 1.890625 -16.273438 1.703125 -16.203125 C 1.429688 -16.097656 1.128906 -16.054688 0.796875 -16.078125 C 0.804688 -16.203125 0.867188 -16.335938 0.984375 -16.484375 L 1.125 -16.640625 L 1.265625 -16.8125 L 1.6875 -17.34375 L 2.125 -17.875 C 2.46875 -18.289062 2.785156 -18.625 3.078125 -18.875 C 3.617188 -19.332031 4.15625 -19.375 4.6875 -19 C 5.25 -18.601562 5.53125 -18.132812 5.53125 -17.59375 L 5.515625 -14.65625 L 5.484375 -11.71875 L 5.484375 -5.640625 L 5.4375 -3.4375 C 5.40625 -2.539062 5.390625 -1.8125 5.390625 -1.25 C 5.390625 -0.976562 5.515625 -0.828125 5.765625 -0.796875 L 6.34375 -0.75 L 6.921875 -0.671875 C 7.066406 -0.648438 7.179688 -0.601562 7.265625 -0.53125 C 7.378906 -0.457031 7.4375 -0.359375 7.4375 -0.234375 C 7.4375 -0.117188 7.378906 -0.0351562 7.265625 0.015625 L 7.109375 0.046875 L 6.9375 0.0625 Z M 5.828125 0.0625 "/></g></g></g><g fill="#000000" fill-opacity="0.4"><g transform="translate(230.545974, 329.61282)"><g><path d="M 9.734375 -11.515625 L 9.71875 -12.421875 C 9.675781 -14.273438 9.25 -15.691406 8.4375 -16.671875 C 8.238281 -16.898438 7.976562 -17.035156 7.65625 -17.078125 C 7.332031 -17.128906 7.097656 -17.039062 6.953125 -16.8125 L 6.296875 -15.8125 C 6.046875 -15.425781 5.867188 -15.066406 5.765625 -14.734375 L 5.25 -13.21875 L 4.78125 -11.703125 C 4.15625 -9.578125 4.125 -7.269531 4.6875 -4.78125 C 4.757812 -4.445312 4.878906 -4.070312 5.046875 -3.65625 C 5.148438 -3.40625 5.304688 -3.046875 5.515625 -2.578125 C 5.660156 -2.273438 5.890625 -2.082031 6.203125 -2 C 6.316406 -1.96875 6.457031 -1.953125 6.625 -1.953125 L 7.0625 -1.953125 C 7.539062 -1.972656 7.957031 -2.316406 8.3125 -2.984375 C 9.25 -4.773438 9.722656 -7.320312 9.734375 -10.625 Z M 11.546875 -11.953125 C 11.472656 -8.890625 11.175781 -6.601562 10.65625 -5.09375 C 10.582031 -4.875 10.523438 -4.628906 10.484375 -4.359375 L 10.34375 -3.65625 C 10.238281 -3.03125 10.117188 -2.546875 9.984375 -2.203125 C 9.109375 -0.109375 7.726562 0.648438 5.84375 0.078125 C 1.945312 -1.097656 0.0546875 -4.0625 0.171875 -8.8125 C 0.242188 -11.75 1.144531 -14.578125 2.875 -17.296875 C 4.03125 -19.109375 5.453125 -19.894531 7.140625 -19.65625 L 7.625 -19.59375 L 8.140625 -19.484375 C 8.503906 -19.378906 8.816406 -19.222656 9.078125 -19.015625 C 9.492188 -18.660156 9.75 -18.1875 9.84375 -17.59375 C 9.882812 -17.332031 10.019531 -17.113281 10.25 -16.9375 C 10.414062 -16.8125 10.550781 -16.613281 10.65625 -16.34375 L 10.765625 -15.96875 L 10.84375 -15.609375 L 11.109375 -14.546875 C 11.222656 -14.109375 11.304688 -13.773438 11.359375 -13.546875 C 11.515625 -12.816406 11.578125 -12.285156 11.546875 -11.953125 Z M 11.546875 -11.953125 "/></g></g></g><g fill="#000000" fill-opacity="0.4"><g transform="translate(245.2986, 329.61282)"><g><path d="M 9.734375 -11.515625 L 9.71875 -12.421875 C 9.675781 -14.273438 9.25 -15.691406 8.4375 -16.671875 C 8.238281 -16.898438 7.976562 -17.035156 7.65625 -17.078125 C 7.332031 -17.128906 7.097656 -17.039062 6.953125 -16.8125 L 6.296875 -15.8125 C 6.046875 -15.425781 5.867188 -15.066406 5.765625 -14.734375 L 5.25 -13.21875 L 4.78125 -11.703125 C 4.15625 -9.578125 4.125 -7.269531 4.6875 -4.78125 C 4.757812 -4.445312 4.878906 -4.070312 5.046875 -3.65625 C 5.148438 -3.40625 5.304688 -3.046875 5.515625 -2.578125 C 5.660156 -2.273438 5.890625 -2.082031 6.203125 -2 C 6.316406 -1.96875 6.457031 -1.953125 6.625 -1.953125 L 7.0625 -1.953125 C 7.539062 -1.972656 7.957031 -2.316406 8.3125 -2.984375 C 9.25 -4.773438 9.722656 -7.320312 9.734375 -10.625 Z M 11.546875 -11.953125 C 11.472656 -8.890625 11.175781 -6.601562 10.65625 -5.09375 C 10.582031 -4.875 10.523438 -4.628906 10.484375 -4.359375 L 10.34375 -3.65625 C 10.238281 -3.03125 10.117188 -2.546875 9.984375 -2.203125 C 9.109375 -0.109375 7.726562 0.648438 5.84375 0.078125 C 1.945312 -1.097656 0.0546875 -4.0625 0.171875 -8.8125 C 0.242188 -11.75 1.144531 -14.578125 2.875 -17.296875 C 4.03125 -19.109375 5.453125 -19.894531 7.140625 -19.65625 L 7.625 -19.59375 L 8.140625 -19.484375 C 8.503906 -19.378906 8.816406 -19.222656 9.078125 -19.015625 C 9.492188 -18.660156 9.75 -18.1875 9.84375 -17.59375 C 9.882812 -17.332031 10.019531 -17.113281 10.25 -16.9375 C 10.414062 -16.8125 10.550781 -16.613281 10.65625 -16.34375 L 10.765625 -15.96875 L 10.84375 -15.609375 L 11.109375 -14.546875 C 11.222656 -14.109375 11.304688 -13.773438 11.359375 -13.546875 C 11.515625 -12.816406 11.578125 -12.285156 11.546875 -11.953125 Z M 11.546875 -11.953125 "/></g></g></g><g fill="#000000" fill-opacity="0.4"><g transform="translate(260.051227, 329.61282)"><g><path d="M 4.25 -20.640625 C 4.03125 -17.640625 3.957031 -13.921875 4.03125 -9.484375 C 4.070312 -7.398438 3.734375 -5.554688 3.015625 -3.953125 C 2.578125 -2.929688 1.816406 -2.546875 0.734375 -2.796875 C 0.523438 -2.835938 0.414062 -3.003906 0.40625 -3.296875 C 0.25 -5.929688 0.210938 -8.410156 0.296875 -10.734375 C 0.359375 -12.316406 0.316406 -13.722656 0.171875 -14.953125 C 0.0546875 -15.953125 0.078125 -17.242188 0.234375 -18.828125 C 0.316406 -19.691406 0.316406 -20.785156 0.234375 -22.109375 C 0.191406 -22.816406 0.207031 -23.441406 0.28125 -23.984375 C 0.363281 -24.503906 0.726562 -24.742188 1.375 -24.703125 C 2.113281 -24.660156 2.734375 -24.398438 3.234375 -23.921875 C 3.722656 -23.441406 4.015625 -22.832031 4.109375 -22.09375 L 4.1875 -21.34375 L 4.203125 -20.96875 Z M 2.75 1.109375 C 2.726562 1.960938 2.367188 2.378906 1.671875 2.359375 C 0.828125 2.335938 0.410156 1.890625 0.421875 1.015625 C 0.421875 0.765625 0.59375 0.503906 0.9375 0.234375 C 1.257812 -0.0351562 1.582031 -0.175781 1.90625 -0.1875 C 2.113281 -0.1875 2.3125 -0.0507812 2.5 0.21875 C 2.675781 0.488281 2.757812 0.785156 2.75 1.109375 Z M 2.75 1.109375 "/></g></g></g><g fill="#000000" fill-opacity="0.4"><g transform="translate(267.681005, 329.61282)"><g><path d="M 4.25 -20.640625 C 4.03125 -17.640625 3.957031 -13.921875 4.03125 -9.484375 C 4.070312 -7.398438 3.734375 -5.554688 3.015625 -3.953125 C 2.578125 -2.929688 1.816406 -2.546875 0.734375 -2.796875 C 0.523438 -2.835938 0.414062 -3.003906 0.40625 -3.296875 C 0.25 -5.929688 0.210938 -8.410156 0.296875 -10.734375 C 0.359375 -12.316406 0.316406 -13.722656 0.171875 -14.953125 C 0.0546875 -15.953125 0.078125 -17.242188 0.234375 -18.828125 C 0.316406 -19.691406 0.316406 -20.785156 0.234375 -22.109375 C 0.191406 -22.816406 0.207031 -23.441406 0.28125 -23.984375 C 0.363281 -24.503906 0.726562 -24.742188 1.375 -24.703125 C 2.113281 -24.660156 2.734375 -24.398438 3.234375 -23.921875 C 3.722656 -23.441406 4.015625 -22.832031 4.109375 -22.09375 L 4.1875 -21.34375 L 4.203125 -20.96875 Z M 2.75 1.109375 C 2.726562 1.960938 2.367188 2.378906 1.671875 2.359375 C 0.828125 2.335938 0.410156 1.890625 0.421875 1.015625 C 0.421875 0.765625 0.59375 0.503906 0.9375 0.234375 C 1.257812 -0.0351562 1.582031 -0.175781 1.90625 -0.1875 C 2.113281 -0.1875 2.3125 -0.0507812 2.5 0.21875 C 2.675781 0.488281 2.757812 0.785156 2.75 1.109375 Z M 2.75 1.109375 "/></g></g></g><g fill="#000000" fill-opacity="0.4"><g transform="translate(275.310781, 329.61282)"><g><path d="M 4.25 -20.640625 C 4.03125 -17.640625 3.957031 -13.921875 4.03125 -9.484375 C 4.070312 -7.398438 3.734375 -5.554688 3.015625 -3.953125 C 2.578125 -2.929688 1.816406 -2.546875 0.734375 -2.796875 C 0.523438 -2.835938 0.414062 -3.003906 0.40625 -3.296875 C 0.25 -5.929688 0.210938 -8.410156 0.296875 -10.734375 C 0.359375 -12.316406 0.316406 -13.722656 0.171875 -14.953125 C 0.0546875 -15.953125 0.078125 -17.242188 0.234375 -18.828125 C 0.316406 -19.691406 0.316406 -20.785156 0.234375 -22.109375 C 0.191406 -22.816406 0.207031 -23.441406 0.28125 -23.984375 C 0.363281 -24.503906 0.726562 -24.742188 1.375 -24.703125 C 2.113281 -24.660156 2.734375 -24.398438 3.234375 -23.921875 C 3.722656 -23.441406 4.015625 -22.832031 4.109375 -22.09375 L 4.1875 -21.34375 L 4.203125 -20.96875 Z M 2.75 1.109375 C 2.726562 1.960938 2.367188 2.378906 1.671875 2.359375 C 0.828125 2.335938 0.410156 1.890625 0.421875 1.015625 C 0.421875 0.765625 0.59375 0.503906 0.9375 0.234375 C 1.257812 -0.0351562 1.582031 -0.175781 1.90625 -0.1875 C 2.113281 -0.1875 2.3125 -0.0507812 2.5 0.21875 C 2.675781 0.488281 2.757812 0.785156 2.75 1.109375 Z M 2.75 1.109375 "/></g></g></g><g fill="#ff1616" fill-opacity="1"><g transform="translate(218.941851, 328.617312)"><g><path d="M 5.828125 0.0625 C 5.742188 0.0820312 5.640625 0.09375 5.515625 0.09375 L 5.203125 0.0625 C 4.929688 0.0390625 4.722656 0.109375 4.578125 0.265625 L 4.515625 0.28125 L 4.453125 0.28125 C 3.972656 0.0507812 3.394531 -0.0625 2.71875 -0.0625 L 1.84375 -0.015625 L 0.953125 0.046875 L 0.796875 0 L 0.65625 -0.0625 L 0.453125 -0.0625 L 0.234375 -0.09375 C 0.078125 -0.125 0.00390625 -0.1875 0.015625 -0.28125 C 0.0234375 -0.40625 0.113281 -0.488281 0.28125 -0.53125 L 0.53125 -0.5625 L 0.75 -0.59375 L 1.4375 -0.703125 L 2.140625 -0.78125 C 2.328125 -0.800781 2.410156 -0.882812 2.390625 -1.03125 C 2.304688 -1.644531 2.273438 -2.410156 2.296875 -3.328125 L 2.34375 -4.484375 L 2.359375 -5.625 L 2.3125 -9.890625 L 2.234375 -14.15625 C 2.222656 -14.40625 2.191406 -14.71875 2.140625 -15.09375 L 2.015625 -16.046875 C 1.992188 -16.222656 1.890625 -16.273438 1.703125 -16.203125 C 1.429688 -16.097656 1.128906 -16.054688 0.796875 -16.078125 C 0.804688 -16.203125 0.867188 -16.335938 0.984375 -16.484375 L 1.125 -16.640625 L 1.265625 -16.8125 L 1.6875 -17.34375 L 2.125 -17.875 C 2.46875 -18.289062 2.785156 -18.625 3.078125 -18.875 C 3.617188 -19.332031 4.15625 -19.375 4.6875 -19 C 5.25 -18.601562 5.53125 -18.132812 5.53125 -17.59375 L 5.515625 -14.65625 L 5.484375 -11.71875 L 5.484375 -5.640625 L 5.4375 -3.4375 C 5.40625 -2.539062 5.390625 -1.8125 5.390625 -1.25 C 5.390625 -0.976562 5.515625 -0.828125 5.765625 -0.796875 L 6.34375 -0.75 L 6.921875 -0.671875 C 7.066406 -0.648438 7.179688 -0.601562 7.265625 -0.53125 C 7.378906 -0.457031 7.4375 -0.359375 7.4375 -0.234375 C 7.4375 -0.117188 7.378906 -0.0351562 7.265625 0.015625 L 7.109375 0.046875 L 6.9375 0.0625 Z M 5.828125 0.0625 "/></g></g></g><g fill="#ff1616" fill-opacity="1"><g transform="translate(229.55048, 328.617312)"><g><path d="M 9.734375 -11.515625 L 9.71875 -12.421875 C 9.675781 -14.273438 9.25 -15.691406 8.4375 -16.671875 C 8.238281 -16.898438 7.976562 -17.035156 7.65625 -17.078125 C 7.332031 -17.128906 7.097656 -17.039062 6.953125 -16.8125 L 6.296875 -15.8125 C 6.046875 -15.425781 5.867188 -15.066406 5.765625 -14.734375 L 5.25 -13.21875 L 4.78125 -11.703125 C 4.15625 -9.578125 4.125 -7.269531 4.6875 -4.78125 C 4.757812 -4.445312 4.878906 -4.070312 5.046875 -3.65625 C 5.148438 -3.40625 5.304688 -3.046875 5.515625 -2.578125 C 5.660156 -2.273438 5.890625 -2.082031 6.203125 -2 C 6.316406 -1.96875 6.457031 -1.953125 6.625 -1.953125 L 7.0625 -1.953125 C 7.539062 -1.972656 7.957031 -2.316406 8.3125 -2.984375 C 9.25 -4.773438 9.722656 -7.320312 9.734375 -10.625 Z M 11.546875 -11.953125 C 11.472656 -8.890625 11.175781 -6.601562 10.65625 -5.09375 C 10.582031 -4.875 10.523438 -4.628906 10.484375 -4.359375 L 10.34375 -3.65625 C 10.238281 -3.03125 10.117188 -2.546875 9.984375 -2.203125 C 9.109375 -0.109375 7.726562 0.648438 5.84375 0.078125 C 1.945312 -1.097656 0.0546875 -4.0625 0.171875 -8.8125 C 0.242188 -11.75 1.144531 -14.578125 2.875 -17.296875 C 4.03125 -19.109375 5.453125 -19.894531 7.140625 -19.65625 L 7.625 -19.59375 L 8.140625 -19.484375 C 8.503906 -19.378906 8.816406 -19.222656 9.078125 -19.015625 C 9.492188 -18.660156 9.75 -18.1875 9.84375 -17.59375 C 9.882812 -17.332031 10.019531 -17.113281 10.25 -16.9375 C 10.414062 -16.8125 10.550781 -16.613281 10.65625 -16.34375 L 10.765625 -15.96875 L 10.84375 -15.609375 L 11.109375 -14.546875 C 11.222656 -14.109375 11.304688 -13.773438 11.359375 -13.546875 C 11.515625 -12.816406 11.578125 -12.285156 11.546875 -11.953125 Z M 11.546875 -11.953125 "/></g></g></g><g fill="#ff1616" fill-opacity="1"><g transform="translate(244.303107, 328.617312)"><g><path d="M 9.734375 -11.515625 L 9.71875 -12.421875 C 9.675781 -14.273438 9.25 -15.691406 8.4375 -16.671875 C 8.238281 -16.898438 7.976562 -17.035156 7.65625 -17.078125 C 7.332031 -17.128906 7.097656 -17.039062 6.953125 -16.8125 L 6.296875 -15.8125 C 6.046875 -15.425781 5.867188 -15.066406 5.765625 -14.734375 L 5.25 -13.21875 L 4.78125 -11.703125 C 4.15625 -9.578125 4.125 -7.269531 4.6875 -4.78125 C 4.757812 -4.445312 4.878906 -4.070312 5.046875 -3.65625 C 5.148438 -3.40625 5.304688 -3.046875 5.515625 -2.578125 C 5.660156 -2.273438 5.890625 -2.082031 6.203125 -2 C 6.316406 -1.96875 6.457031 -1.953125 6.625 -1.953125 L 7.0625 -1.953125 C 7.539062 -1.972656 7.957031 -2.316406 8.3125 -2.984375 C 9.25 -4.773438 9.722656 -7.320312 9.734375 -10.625 Z M 11.546875 -11.953125 C 11.472656 -8.890625 11.175781 -6.601562 10.65625 -5.09375 C 10.582031 -4.875 10.523438 -4.628906 10.484375 -4.359375 L 10.34375 -3.65625 C 10.238281 -3.03125 10.117188 -2.546875 9.984375 -2.203125 C 9.109375 -0.109375 7.726562 0.648438 5.84375 0.078125 C 1.945312 -1.097656 0.0546875 -4.0625 0.171875 -8.8125 C 0.242188 -11.75 1.144531 -14.578125 2.875 -17.296875 C 4.03125 -19.109375 5.453125 -19.894531 7.140625 -19.65625 L 7.625 -19.59375 L 8.140625 -19.484375 C 8.503906 -19.378906 8.816406 -19.222656 9.078125 -19.015625 C 9.492188 -18.660156 9.75 -18.1875 9.84375 -17.59375 C 9.882812 -17.332031 10.019531 -17.113281 10.25 -16.9375 C 10.414062 -16.8125 10.550781 -16.613281 10.65625 -16.34375 L 10.765625 -15.96875 L 10.84375 -15.609375 L 11.109375 -14.546875 C 11.222656 -14.109375 11.304688 -13.773438 11.359375 -13.546875 C 11.515625 -12.816406 11.578125 -12.285156 11.546875 -11.953125 Z M 11.546875 -11.953125 "/></g></g></g><g fill="#ff1616" fill-opacity="1"><g transform="translate(259.055733, 328.617312)"><g><path d="M 4.25 -20.640625 C 4.03125 -17.640625 3.957031 -13.921875 4.03125 -9.484375 C 4.070312 -7.398438 3.734375 -5.554688 3.015625 -3.953125 C 2.578125 -2.929688 1.816406 -2.546875 0.734375 -2.796875 C 0.523438 -2.835938 0.414062 -3.003906 0.40625 -3.296875 C 0.25 -5.929688 0.210938 -8.410156 0.296875 -10.734375 C 0.359375 -12.316406 0.316406 -13.722656 0.171875 -14.953125 C 0.0546875 -15.953125 0.078125 -17.242188 0.234375 -18.828125 C 0.316406 -19.691406 0.316406 -20.785156 0.234375 -22.109375 C 0.191406 -22.816406 0.207031 -23.441406 0.28125 -23.984375 C 0.363281 -24.503906 0.726562 -24.742188 1.375 -24.703125 C 2.113281 -24.660156 2.734375 -24.398438 3.234375 -23.921875 C 3.722656 -23.441406 4.015625 -22.832031 4.109375 -22.09375 L 4.1875 -21.34375 L 4.203125 -20.96875 Z M 2.75 1.109375 C 2.726562 1.960938 2.367188 2.378906 1.671875 2.359375 C 0.828125 2.335938 0.410156 1.890625 0.421875 1.015625 C 0.421875 0.765625 0.59375 0.503906 0.9375 0.234375 C 1.257812 -0.0351562 1.582031 -0.175781 1.90625 -0.1875 C 2.113281 -0.1875 2.3125 -0.0507812 2.5 0.21875 C 2.675781 0.488281 2.757812 0.785156 2.75 1.109375 Z M 2.75 1.109375 "/></g></g></g><g fill="#ff1616" fill-opacity="1"><g transform="translate(266.685511, 328.617312)"><g><path d="M 4.25 -20.640625 C 4.03125 -17.640625 3.957031 -13.921875 4.03125 -9.484375 C 4.070312 -7.398438 3.734375 -5.554688 3.015625 -3.953125 C 2.578125 -2.929688 1.816406 -2.546875 0.734375 -2.796875 C 0.523438 -2.835938 0.414062 -3.003906 0.40625 -3.296875 C 0.25 -5.929688 0.210938 -8.410156 0.296875 -10.734375 C 0.359375 -12.316406 0.316406 -13.722656 0.171875 -14.953125 C 0.0546875 -15.953125 0.078125 -17.242188 0.234375 -18.828125 C 0.316406 -19.691406 0.316406 -20.785156 0.234375 -22.109375 C 0.191406 -22.816406 0.207031 -23.441406 0.28125 -23.984375 C 0.363281 -24.503906 0.726562 -24.742188 1.375 -24.703125 C 2.113281 -24.660156 2.734375 -24.398438 3.234375 -23.921875 C 3.722656 -23.441406 4.015625 -22.832031 4.109375 -22.09375 L 4.1875 -21.34375 L 4.203125 -20.96875 Z M 2.75 1.109375 C 2.726562 1.960938 2.367188 2.378906 1.671875 2.359375 C 0.828125 2.335938 0.410156 1.890625 0.421875 1.015625 C 0.421875 0.765625 0.59375 0.503906 0.9375 0.234375 C 1.257812 -0.0351562 1.582031 -0.175781 1.90625 -0.1875 C 2.113281 -0.1875 2.3125 -0.0507812 2.5 0.21875 C 2.675781 0.488281 2.757812 0.785156 2.75 1.109375 Z M 2.75 1.109375 "/></g></g></g><g fill="#ff1616" fill-opacity="1"><g transform="translate(274.315287, 328.617312)"><g><path d="M 4.25 -20.640625 C 4.03125 -17.640625 3.957031 -13.921875 4.03125 -9.484375 C 4.070312 -7.398438 3.734375 -5.554688 3.015625 -3.953125 C 2.578125 -2.929688 1.816406 -2.546875 0.734375 -2.796875 C 0.523438 -2.835938 0.414062 -3.003906 0.40625 -3.296875 C 0.25 -5.929688 0.210938 -8.410156 0.296875 -10.734375 C 0.359375 -12.316406 0.316406 -13.722656 0.171875 -14.953125 C 0.0546875 -15.953125 0.078125 -17.242188 0.234375 -18.828125 C 0.316406 -19.691406 0.316406 -20.785156 0.234375 -22.109375 C 0.191406 -22.816406 0.207031 -23.441406 0.28125 -23.984375 C 0.363281 -24.503906 0.726562 -24.742188 1.375 -24.703125 C 2.113281 -24.660156 2.734375 -24.398438 3.234375 -23.921875 C 3.722656 -23.441406 4.015625 -22.832031 4.109375 -22.09375 L 4.1875 -21.34375 L 4.203125 -20.96875 Z M 2.75 1.109375 C 2.726562 1.960938 2.367188 2.378906 1.671875 2.359375 C 0.828125 2.335938 0.410156 1.890625 0.421875 1.015625 C 0.421875 0.765625 0.59375 0.503906 0.9375 0.234375 C 1.257812 -0.0351562 1.582031 -0.175781 1.90625 -0.1875 C 2.113281 -0.1875 2.3125 -0.0507812 2.5 0.21875 C 2.675781 0.488281 2.757812 0.785156 2.75 1.109375 Z M 2.75 1.109375 "/></g></g></g><g fill="#000000" fill-opacity="0.4"><g transform="translate(47.929007, 299.294809)"><g><path d="M 16.59375 0.59375 C 11.476562 0.59375 7.53125 -0.742188 4.75 -3.421875 C 1.976562 -6.109375 0.59375 -10.398438 0.59375 -16.296875 C 0.59375 -22.191406 1.976562 -26.476562 4.75 -29.15625 C 7.53125 -31.84375 11.476562 -33.1875 16.59375 -33.1875 C 21.707031 -33.1875 25.65625 -31.84375 28.4375 -29.15625 C 31.21875 -26.476562 32.609375 -22.191406 32.609375 -16.296875 C 32.609375 -10.398438 31.21875 -6.109375 28.4375 -3.421875 C 25.65625 -0.742188 21.707031 0.59375 16.59375 0.59375 Z M 16.59375 -6.875 C 17.539062 -6.875 18.25 -7.125 18.71875 -7.625 C 19.195312 -8.125 19.4375 -8.90625 19.4375 -9.96875 L 19.4375 -22.625 C 19.4375 -23.6875 19.195312 -24.46875 18.71875 -24.96875 C 18.25 -25.476562 17.539062 -25.734375 16.59375 -25.734375 C 15.644531 -25.734375 14.929688 -25.476562 14.453125 -24.96875 C 13.984375 -24.46875 13.75 -23.6875 13.75 -22.625 L 13.75 -9.96875 C 13.75 -8.882812 13.984375 -8.097656 14.453125 -7.609375 C 14.929688 -7.117188 15.644531 -6.875 16.59375 -6.875 Z M 16.59375 -6.875 "/></g></g></g><g fill="#000000" fill-opacity="0.4"><g transform="translate(81.109759, 299.294809)"><g><path d="M 24.96875 -32.609375 L 38.71875 -32.609375 L 38.71875 -25.734375 L 36.625 -25.734375 L 36.625 0 L 24.84375 0 L 12.578125 -18.90625 L 12.578125 -6.875 L 14.578125 -6.875 L 14.578125 0 L 0.84375 0 L 0.84375 -6.875 L 2.9375 -6.875 L 2.9375 -25.734375 L 0.84375 -25.734375 L 0.84375 -32.609375 L 15.96875 -32.609375 L 26.984375 -15.796875 L 26.984375 -25.734375 L 24.96875 -25.734375 Z M 24.96875 -32.609375 "/></g></g></g><g fill="#000000" fill-opacity="0.4"><g transform="translate(120.574753, 299.294809)"><g><path d="M 0.84375 0 L 0.84375 -6.875 L 2.9375 -6.875 L 2.9375 -25.734375 L 0.84375 -25.734375 L 0.84375 -32.609375 L 29.125 -32.609375 L 29.125 -19.953125 L 19.734375 -19.953125 L 19.734375 -25.734375 L 14.671875 -25.734375 L 14.671875 -19.109375 L 18.359375 -19.109375 L 18.359375 -14.328125 L 14.671875 -14.328125 L 14.671875 -6.875 L 19.734375 -6.875 L 19.734375 -13.5 L 29.125 -13.5 L 29.125 0 Z M 0.84375 0 "/></g></g></g><g fill="#000000" fill-opacity="0.4"><g transform="translate(150.445815, 299.294809)"><g/></g></g><g fill="#000000" fill-opacity="0.4"><g transform="translate(163.014288, 299.294809)"><g><path d="M 34.359375 -25.734375 L 32.265625 -25.734375 L 32.265625 -6.875 L 34.359375 -6.875 L 34.359375 0 L 18.515625 0 L 18.515625 -6.875 L 20.53125 -6.875 L 20.53125 -13.78125 L 14.671875 -13.78125 L 14.671875 -6.875 L 16.671875 -6.875 L 16.671875 0 L 0.84375 0 L 0.84375 -6.875 L 2.9375 -6.875 L 2.9375 -25.734375 L 0.84375 -25.734375 L 0.84375 -32.609375 L 16.671875 -32.609375 L 16.671875 -25.734375 L 14.671875 -25.734375 L 14.671875 -19.359375 L 20.53125 -19.359375 L 20.53125 -25.734375 L 18.515625 -25.734375 L 18.515625 -32.609375 L 34.359375 -32.609375 Z M 34.359375 -25.734375 "/></g></g></g><g fill="#000000" fill-opacity="0.4"><g transform="translate(198.206, 299.294809)"><g><path d="M 16.515625 0.59375 C 12.128906 0.59375 8.738281 -0.367188 6.34375 -2.296875 C 3.957031 -4.234375 2.765625 -7.363281 2.765625 -11.6875 L 2.765625 -25.734375 L 0.671875 -25.734375 L 0.671875 -32.609375 L 16.171875 -32.609375 L 16.171875 -25.734375 L 14.5 -25.734375 L 14.5 -9.546875 C 14.5 -8.628906 14.703125 -7.953125 15.109375 -7.515625 C 15.515625 -7.085938 16.125 -6.875 16.9375 -6.875 C 17.738281 -6.875 18.34375 -7.085938 18.75 -7.515625 C 19.15625 -7.953125 19.359375 -8.628906 19.359375 -9.546875 L 19.359375 -25.734375 L 17.6875 -25.734375 L 17.6875 -32.609375 L 32.0625 -32.609375 L 32.0625 -25.734375 L 29.96875 -25.734375 L 29.96875 -11.6875 C 29.96875 -7.363281 28.804688 -4.234375 26.484375 -2.296875 C 24.160156 -0.367188 20.835938 0.59375 16.515625 0.59375 Z M 16.515625 0.59375 "/></g></g></g><g fill="#000000" fill-opacity="0.4"><g transform="translate(230.925917, 299.294809)"><g><path d="M 24.96875 -32.609375 L 38.71875 -32.609375 L 38.71875 -25.734375 L 36.625 -25.734375 L 36.625 0 L 24.84375 0 L 12.578125 -18.90625 L 12.578125 -6.875 L 14.578125 -6.875 L 14.578125 0 L 0.84375 0 L 0.84375 -6.875 L 2.9375 -6.875 L 2.9375 -25.734375 L 0.84375 -25.734375 L 0.84375 -32.609375 L 15.96875 -32.609375 L 26.984375 -15.796875 L 26.984375 -25.734375 L 24.96875 -25.734375 Z M 24.96875 -32.609375 "/></g></g></g><g fill="#000000" fill-opacity="0.4"><g transform="translate(270.390911, 299.294809)"><g><path d="M 24.96875 -32.609375 L 38.71875 -32.609375 L 38.71875 -25.734375 L 36.625 -25.734375 L 36.625 0 L 24.84375 0 L 12.578125 -18.90625 L 12.578125 -6.875 L 14.578125 -6.875 L 14.578125 0 L 0.84375 0 L 0.84375 -6.875 L 2.9375 -6.875 L 2.9375 -25.734375 L 0.84375 -25.734375 L 0.84375 -32.609375 L 15.96875 -32.609375 L 26.984375 -15.796875 L 26.984375 -25.734375 L 24.96875 -25.734375 Z M 24.96875 -32.609375 "/></g></g></g><g fill="#000000" fill-opacity="0.4"><g transform="translate(309.855917, 299.294809)"><g><path d="M 0.84375 0 L 0.84375 -6.875 L 2.9375 -6.875 L 2.9375 -25.734375 L 0.84375 -25.734375 L 0.84375 -32.609375 L 16.765625 -32.609375 L 16.765625 -25.734375 L 14.671875 -25.734375 L 14.671875 -6.875 L 16.765625 -6.875 L 16.765625 0 Z M 0.84375 0 "/></g></g></g><g fill="#000000" fill-opacity="0.4"><g transform="translate(327.451786, 299.294809)"><g><path d="M 32.09375 -22.46875 L 24.890625 -22.46875 L 24.890625 -25.734375 L 22.203125 -25.734375 L 22.203125 -6.875 L 25.140625 -6.875 L 25.140625 0 L 7.546875 0 L 7.546875 -6.875 L 10.484375 -6.875 L 10.484375 -25.734375 L 7.796875 -25.734375 L 7.796875 -22.46875 L 0.59375 -22.46875 L 0.59375 -32.609375 L 32.09375 -32.609375 Z M 32.09375 -22.46875 "/></g></g></g><g fill="#000000" fill-opacity="1"><g transform="translate(46.076889, 297.442689)"><g><path d="M 16.59375 0.59375 C 11.476562 0.59375 7.53125 -0.742188 4.75 -3.421875 C 1.976562 -6.109375 0.59375 -10.398438 0.59375 -16.296875 C 0.59375 -22.191406 1.976562 -26.476562 4.75 -29.15625 C 7.53125 -31.84375 11.476562 -33.1875 16.59375 -33.1875 C 21.707031 -33.1875 25.65625 -31.84375 28.4375 -29.15625 C 31.21875 -26.476562 32.609375 -22.191406 32.609375 -16.296875 C 32.609375 -10.398438 31.21875 -6.109375 28.4375 -3.421875 C 25.65625 -0.742188 21.707031 0.59375 16.59375 0.59375 Z M 16.59375 -6.875 C 17.539062 -6.875 18.25 -7.125 18.71875 -7.625 C 19.195312 -8.125 19.4375 -8.90625 19.4375 -9.96875 L 19.4375 -22.625 C 19.4375 -23.6875 19.195312 -24.46875 18.71875 -24.96875 C 18.25 -25.476562 17.539062 -25.734375 16.59375 -25.734375 C 15.644531 -25.734375 14.929688 -25.476562 14.453125 -24.96875 C 13.984375 -24.46875 13.75 -23.6875 13.75 -22.625 L 13.75 -9.96875 C 13.75 -8.882812 13.984375 -8.097656 14.453125 -7.609375 C 14.929688 -7.117188 15.644531 -6.875 16.59375 -6.875 Z M 16.59375 -6.875 "/></g></g></g><g fill="#000000" fill-opacity="1"><g transform="translate(79.257641, 297.442689)"><g><path d="M 24.96875 -32.609375 L 38.71875 -32.609375 L 38.71875 -25.734375 L 36.625 -25.734375 L 36.625 0 L 24.84375 0 L 12.578125 -18.90625 L 12.578125 -6.875 L 14.578125 -6.875 L 14.578125 0 L 0.84375 0 L 0.84375 -6.875 L 2.9375 -6.875 L 2.9375 -25.734375 L 0.84375 -25.734375 L 0.84375 -32.609375 L 15.96875 -32.609375 L 26.984375 -15.796875 L 26.984375 -25.734375 L 24.96875 -25.734375 Z M 24.96875 -32.609375 "/></g></g></g><g fill="#000000" fill-opacity="1"><g transform="translate(118.722635, 297.442689)"><g><path d="M 0.84375 0 L 0.84375 -6.875 L 2.9375 -6.875 L 2.9375 -25.734375 L 0.84375 -25.734375 L 0.84375 -32.609375 L 29.125 -32.609375 L 29.125 -19.953125 L 19.734375 -19.953125 L 19.734375 -25.734375 L 14.671875 -25.734375 L 14.671875 -19.109375 L 18.359375 -19.109375 L 18.359375 -14.328125 L 14.671875 -14.328125 L 14.671875 -6.875 L 19.734375 -6.875 L 19.734375 -13.5 L 29.125 -13.5 L 29.125 0 Z M 0.84375 0 "/></g></g></g><g fill="#000000" fill-opacity="1"><g transform="translate(148.593697, 297.442689)"><g/></g></g><g fill="#000000" fill-opacity="1"><g transform="translate(161.162169, 297.442689)"><g><path d="M 34.359375 -25.734375 L 32.265625 -25.734375 L 32.265625 -6.875 L 34.359375 -6.875 L 34.359375 0 L 18.515625 0 L 18.515625 -6.875 L 20.53125 -6.875 L 20.53125 -13.78125 L 14.671875 -13.78125 L 14.671875 -6.875 L 16.671875 -6.875 L 16.671875 0 L 0.84375 0 L 0.84375 -6.875 L 2.9375 -6.875 L 2.9375 -25.734375 L 0.84375 -25.734375 L 0.84375 -32.609375 L 16.671875 -32.609375 L 16.671875 -25.734375 L 14.671875 -25.734375 L 14.671875 -19.359375 L 20.53125 -19.359375 L 20.53125 -25.734375 L 18.515625 -25.734375 L 18.515625 -32.609375 L 34.359375 -32.609375 Z M 34.359375 -25.734375 "/></g></g></g><g fill="#000000" fill-opacity="1"><g transform="translate(196.353882, 297.442689)"><g><path d="M 16.515625 0.59375 C 12.128906 0.59375 8.738281 -0.367188 6.34375 -2.296875 C 3.957031 -4.234375 2.765625 -7.363281 2.765625 -11.6875 L 2.765625 -25.734375 L 0.671875 -25.734375 L 0.671875 -32.609375 L 16.171875 -32.609375 L 16.171875 -25.734375 L 14.5 -25.734375 L 14.5 -9.546875 C 14.5 -8.628906 14.703125 -7.953125 15.109375 -7.515625 C 15.515625 -7.085938 16.125 -6.875 16.9375 -6.875 C 17.738281 -6.875 18.34375 -7.085938 18.75 -7.515625 C 19.15625 -7.953125 19.359375 -8.628906 19.359375 -9.546875 L 19.359375 -25.734375 L 17.6875 -25.734375 L 17.6875 -32.609375 L 32.0625 -32.609375 L 32.0625 -25.734375 L 29.96875 -25.734375 L 29.96875 -11.6875 C 29.96875 -7.363281 28.804688 -4.234375 26.484375 -2.296875 C 24.160156 -0.367188 20.835938 0.59375 16.515625 0.59375 Z M 16.515625 0.59375 "/></g></g></g><g fill="#000000" fill-opacity="1"><g transform="translate(229.073799, 297.442689)"><g><path d="M 24.96875 -32.609375 L 38.71875 -32.609375 L 38.71875 -25.734375 L 36.625 -25.734375 L 36.625 0 L 24.84375 0 L 12.578125 -18.90625 L 12.578125 -6.875 L 14.578125 -6.875 L 14.578125 0 L 0.84375 0 L 0.84375 -6.875 L 2.9375 -6.875 L 2.9375 -25.734375 L 0.84375 -25.734375 L 0.84375 -32.609375 L 15.96875 -32.609375 L 26.984375 -15.796875 L 26.984375 -25.734375 L 24.96875 -25.734375 Z M 24.96875 -32.609375 "/></g></g></g><g fill="#000000" fill-opacity="1"><g transform="translate(268.538793, 297.442689)"><g><path d="M 24.96875 -32.609375 L 38.71875 -32.609375 L 38.71875 -25.734375 L 36.625 -25.734375 L 36.625 0 L 24.84375 0 L 12.578125 -18.90625 L 12.578125 -6.875 L 14.578125 -6.875 L 14.578125 0 L 0.84375 0 L 0.84375 -6.875 L 2.9375 -6.875 L 2.9375 -25.734375 L 0.84375 -25.734375 L 0.84375 -32.609375 L 15.96875 -32.609375 L 26.984375 -15.796875 L 26.984375 -25.734375 L 24.96875 -25.734375 Z M 24.96875 -32.609375 "/></g></g></g><g fill="#000000" fill-opacity="1"><g transform="translate(308.003799, 297.442689)"><g><path d="M 0.84375 0 L 0.84375 -6.875 L 2.9375 -6.875 L 2.9375 -25.734375 L 0.84375 -25.734375 L 0.84375 -32.609375 L 16.765625 -32.609375 L 16.765625 -25.734375 L 14.671875 -25.734375 L 14.671875 -6.875 L 16.765625 -6.875 L 16.765625 0 Z M 0.84375 0 "/></g></g></g><g fill="#000000" fill-opacity="1"><g transform="translate(325.599668, 297.442689)"><g><path d="M 32.09375 -22.46875 L 24.890625 -22.46875 L 24.890625 -25.734375 L 22.203125 -25.734375 L 22.203125 -6.875 L 25.140625 -6.875 L 25.140625 0 L 7.546875 0 L 7.546875 -6.875 L 10.484375 -6.875 L 10.484375 -25.734375 L 7.796875 -25.734375 L 7.796875 -22.46875 L 0.59375 -22.46875 L 0.59375 -32.609375 L 32.09375 -32.609375 Z M 32.09375 -22.46875 "/></g></g></g></svg>